<svg width="58" height="58" viewBox="0 0 58 58" fill="none" xmlns="http://www.w3.org/2000/svg">
<g filter="url(#filter0_d_45_691)">
<circle cx="29" cy="25" r="25" fill="white"/>
</g>
<path d="M29 19.9499C29.0889 19.9499 29.1722 19.9637 29.25 19.9913C29.3278 20.0188 29.4 20.0661 29.4667 20.1333L33.8667 24.5333C34 24.6666 34.0667 24.8248 34.0667 25.0079C34.0667 25.191 34 25.3495 33.8667 25.4833C33.7333 25.6166 33.5778 25.6833 33.4 25.6833C33.2222 25.6833 33.0667 25.6166 32.9333 25.4833L29.6667 22.2166V29.6833C29.6667 29.8721 29.6027 30.0277 29.4747 30.1499C29.3467 30.2721 29.1884 30.3333 29 30.3333C28.8111 30.3333 28.6527 30.2693 28.5247 30.1413C28.3967 30.0133 28.3329 29.855 28.3333 29.6666V22.2166L25.0667 25.4833C24.9333 25.6166 24.7778 25.6833 24.6 25.6833C24.4222 25.6833 24.2667 25.6166 24.1333 25.4833C24 25.3499 23.9333 25.1915 23.9333 25.0079C23.9333 24.8244 24 24.6661 24.1333 24.5333L28.5333 20.1333C28.6 20.0666 28.6722 20.0193 28.75 19.9913C28.8278 19.9633 28.9111 19.9495 29 19.9499Z" fill="black"/>
<defs>
<filter id="filter0_d_45_691" x="0" y="0" width="58" height="58" filterUnits="userSpaceOnUse" color-interpolation-filters="sRGB">
<feFlood flood-opacity="0" result="BackgroundImageFix"/>
<feColorMatrix in="SourceAlpha" type="matrix" values="0 0 0 0 0 0 0 0 0 0 0 0 0 0 0 0 0 0 127 0" result="hardAlpha"/>
<feOffset dy="4"/>
<feGaussianBlur stdDeviation="2"/>
<feComposite in2="hardAlpha" operator="out"/>
<feColorMatrix type="matrix" values="0 0 0 0 0.191667 0 0 0 0 0.128238 0 0 0 0 0.00511113 0 0 0 0.15 0"/>
<feBlend mode="normal" in2="BackgroundImageFix" result="effect1_dropShadow_45_691"/>
<feBlend mode="normal" in="SourceGraphic" in2="effect1_dropShadow_45_691" result="shape"/>
</filter>
</defs>
</svg>
